<?xml version="1.0" encoding="UTF-8" standalone="no"?>
<!-- Generator: Adobe Illustrator 18.1.1, SVG Export Plug-In . SVG Version: 6.00 Build 0)  -->

<svg
   xmlns:dc="http://purl.org/dc/elements/1.1/"
   xmlns:cc="http://creativecommons.org/ns#"
   xmlns:rdf="http://www.w3.org/1999/02/22-rdf-syntax-ns#"
   xmlns:svg="http://www.w3.org/2000/svg"
   xmlns="http://www.w3.org/2000/svg"
   xmlns:sodipodi="http://sodipodi.sourceforge.net/DTD/sodipodi-0.dtd"
   xmlns:inkscape="http://www.inkscape.org/namespaces/inkscape"
   version="1.1"
   id="Layer_1"
   x="0px"
   y="0px"
   width="40px"
   height="40px"
   viewBox="0 0 40 40"
   style="enable-background:new 0 0 40 40;"
   xml:space="preserve"
   inkscape:version="0.48.4 r9939"
   sodipodi:docname="cd-icon-arrow.svg"><metadata
     id="metadata17"><rdf:RDF><cc:Work
         rdf:about=""><dc:format>image/svg+xml</dc:format><dc:type
           rdf:resource="http://purl.org/dc/dcmitype/StillImage" /></cc:Work></rdf:RDF></metadata><defs
     id="defs15" /><sodipodi:namedview
     pagecolor="#ffffff"
     bordercolor="#666666"
     borderopacity="1"
     objecttolerance="10"
     gridtolerance="10"
     guidetolerance="10"
     inkscape:pageopacity="0"
     inkscape:pageshadow="2"
     inkscape:window-width="1920"
     inkscape:window-height="1056"
     id="namedview13"
     showgrid="false"
     inkscape:zoom="16.970563"
     inkscape:cx="13.002155"
     inkscape:cy="18.127786"
     inkscape:window-x="0"
     inkscape:window-y="24"
     inkscape:window-maximized="1"
     inkscape:current-layer="Layer_1"
     showguides="true"
     inkscape:guide-bbox="true" /><style
     type="text/css"
     id="style3">
	.st0{fill:none;stroke:#E4D8B5;stroke-width:2;stroke-miterlimit:10;}
</style><g
     id="g7"><line
       class="st0"
       x1="20"
       y1="9"
       x2="20"
       y2="31"
       id="line9" /><polyline
       class="st0"
       points="11,22 20,31 29,22  "
       id="polyline11" /></g><path
     sodipodi:type="arc"
     style="fill:#1a1a1a;fill-opacity:1;stroke:none"
     id="path2987"
     sodipodi:cx="21.625683"
     sodipodi:cy="21.14382"
     sodipodi:rx="20.034693"
     sodipodi:ry="19.681139"
     d="m 41.660376,21.14382 a 20.034693,19.681139 0 1 1 -40.0693859,0 20.034693,19.681139 0 1 1 40.0693859,0 z"
     transform="matrix(0.98529412,0,0,1,-1.2729655,-1.1195857)" /><path
     style="fill:#e6e6e6;fill-opacity:1;stroke:none"
     d="m 15.141243,27.540942 -4.831538,-4.831807 0.692219,-0.692219 0.692219,-0.692219 3.653318,3.652961 3.653317,3.652961 0,-9.796197 0,-9.7961969 0.972272,0 0.972272,0 0,9.7816439 c 0,5.379904 0.01981,9.781644 0.04402,9.781644 0.02421,0 1.681461,-1.637284 3.68278,-3.638408 l 3.638763,-3.638408 0.676007,0.677398 0.676006,0.677398 -4.805936,4.846628 c -2.643265,2.665645 -4.823541,4.846628 -4.845057,4.846628 -0.02152,0 -2.213313,-2.174313 -4.870659,-4.831807 l 0,0 z"
     id="path2994"
     inkscape:connector-curvature="0" /></svg>